<svg xmlns="http://www.w3.org/2000/svg" viewBox="0 0 512 512" role="img" aria-labelledby="title desc">
  <title id="title">CSS Performance Budget logo</title>
  <desc id="desc">A dark hex badge with an ember speed gauge, CSS braces, and a lime budget needle.</desc>
  <defs>
    <linearGradient id="bg" x1="72" x2="440" y1="56" y2="456" gradientUnits="userSpaceOnUse">
      <stop offset="0" stop-color="#2b1810" />
      <stop offset="0.46" stop-color="#17120e" />
      <stop offset="1" stop-color="#25140c" />
    </linearGradient>
    <linearGradient id="ember" x1="132" x2="396" y1="128" y2="382" gradientUnits="userSpaceOnUse">
      <stop offset="0" stop-color="#ffd166" />
      <stop offset="0.42" stop-color="#ff7a1a" />
      <stop offset="1" stop-color="#ff3d00" />
    </linearGradient>
    <linearGradient id="lime" x1="235" x2="356" y1="276" y2="193" gradientUnits="userSpaceOnUse">
      <stop offset="0" stop-color="#f7ff8a" />
      <stop offset="1" stop-color="#9bf22f" />
    </linearGradient>
    <filter id="glow" color-interpolation-filters="sRGB" x="-30%" y="-30%" width="160%" height="160%">
      <feGaussianBlur stdDeviation="7" result="blur" />
      <feMerge>
        <feMergeNode in="blur" />
        <feMergeNode in="SourceGraphic" />
      </feMerge>
    </filter>
    <clipPath id="hexClip">
      <path d="M256 28 443 136v240L256 484 69 376V136z" />
    </clipPath>
  </defs>
  <path d="M256 18 452 131v250L256 494 60 381V131z" fill="#0f0b08" />
  <path d="M256 28 443 136v240L256 484 69 376V136z" fill="url(#bg)" />
  <g clip-path="url(#hexClip)">
    <circle cx="422" cy="62" r="168" fill="#ff6a00" opacity="0.18" />
    <circle cx="70" cy="438" r="190" fill="#b8f34a" opacity="0.12" />
    <path d="M78 348c95 48 221 43 356-15" fill="none" stroke="#ff3d81" stroke-width="26" opacity="0.16" />
    <path d="M32 167h448" stroke="#fff2d6" stroke-width="2" opacity="0.06" />
    <path d="M32 255h448" stroke="#fff2d6" stroke-width="2" opacity="0.05" />
    <path d="M32 343h448" stroke="#fff2d6" stroke-width="2" opacity="0.06" />
  </g>
  <path d="M256 28 443 136v240L256 484 69 376V136z" fill="none" stroke="#ffd166" stroke-width="12" />
  <path d="M256 53 421 148v216L256 459 91 364V148z" fill="none" stroke="#ff7a1a" stroke-width="4" opacity="0.8" />
  <path d="M143 304a113 113 0 0 1 226 0" fill="none" stroke="#fff2d6" stroke-linecap="round" stroke-width="25" opacity="0.22" />
  <path d="M143 304a113 113 0 0 1 43-89" fill="none" stroke="#b8f34a" stroke-linecap="round" stroke-width="25" />
  <path d="M186 215a113 113 0 0 1 81-24" fill="none" stroke="#ffd166" stroke-linecap="round" stroke-width="25" />
  <path d="M267 191a113 113 0 0 1 102 113" fill="none" stroke="url(#ember)" stroke-linecap="round" stroke-width="25" filter="url(#glow)" />
  <path d="M256 308 356 197" fill="none" stroke="url(#lime)" stroke-linecap="round" stroke-width="16" filter="url(#glow)" />
  <circle cx="256" cy="308" r="30" fill="#17120e" stroke="#ffd166" stroke-width="12" />
  <path d="M179 348c-30-15-48-44-48-78 0-36 20-67 52-82" fill="none" stroke="#ff7a1a" stroke-linecap="round" stroke-width="16" />
  <path d="M333 348c30-15 48-44 48-78 0-36-20-67-52-82" fill="none" stroke="#ff7a1a" stroke-linecap="round" stroke-width="16" />
  <text x="256" y="404" fill="#fff2d6" font-family="ui-monospace, SFMono-Regular, Menlo, Consolas, monospace" font-size="58" font-weight="800" letter-spacing="-2" text-anchor="middle">CSS</text>
  <text x="256" y="438" fill="#b8f34a" font-family="ui-monospace, SFMono-Regular, Menlo, Consolas, monospace" font-size="24" font-weight="800" letter-spacing="5" text-anchor="middle">BUDGET</text>
</svg>